<?xml version="1.0" encoding="UTF-8"?>
<svg id="_レイヤー_2" data-name="レイヤー 2" xmlns="http://www.w3.org/2000/svg" viewBox="0 0 532.09 470.48">
  <defs>
    <style>
      .cls-1 {
        fill: #666;
      }
    </style>
  </defs>
  <g id="_レイヤー_1-2" data-name="レイヤー 1">
    <path class="cls-1" d="M531.01,17.58s.03-.06.04-.09c.1-.24.19-.47.28-.71.04-.11.08-.22.12-.33.05-.15.09-.31.14-.47.06-.2.11-.4.16-.59.02-.07.03-.14.04-.21.91-4.17-.34-8.61-3.53-11.68-2.66-2.56-6.23-3.74-9.74-3.44H12.5C7.23.05,2.53,3.35.74,8.31s-.27,10.5,3.79,13.87l208.52,172.67,52.06,265.54c1.01,5.17,5.16,9.15,10.37,9.95.64.1,1.27.15,1.9.15,4.53,0,8.77-2.46,10.98-6.53L530.33,18.92c.26-.43.48-.88.68-1.34ZM474.02,25.05l-248.44,147.71L47.2,25.05h426.82ZM282.97,421.53l-44.56-227.27L486.85,46.55l-203.88,374.98Z"/>
  </g>
</svg>