<?xml version="1.0" encoding="UTF-8"?>
<svg id="_x32_" xmlns="http://www.w3.org/2000/svg" version="1.1" viewBox="0 0 512 512">
  <!-- Generator: Adobe Illustrator 29.8.2, SVG Export Plug-In . SVG Version: 2.1.1 Build 3)  -->
  <defs>
    <style>
      .st0 {
        fill: #4b4b4b;
      }
    </style>
  </defs>
  <path class="st0" d="M356.83,83.14c26.34,0,51.1,10.26,69.72,28.88,38.41,38.41,38.44,100.88.11,139.34l-.11.11-170.55,170.55L85.47,251.49l-.17-.17c-18.53-18.61-28.73-43.3-28.73-69.57s10.26-51.1,28.88-69.72c18.63-18.63,43.38-28.88,69.72-28.88,26.34,0,51.1,10.26,69.72,28.88l31.11,31.11,31.11-31.11c18.62-18.62,43.38-28.88,69.72-28.88M356.83,39.14c-36.49,0-72.99,13.92-100.83,41.77-27.84-27.84-64.34-41.76-100.83-41.77-36.5,0-72.99,13.92-100.83,41.77C-1.35,136.6-1.35,226.89,54.33,282.58c0,0,.02.02.02.02l201.64,201.64,201.67-201.67h0s0,0,0,0c55.69-55.69,55.69-145.98,0-201.67-27.84-27.84-64.34-41.77-100.83-41.77h0Z"/>
</svg>